<svg xmlns="http://www.w3.org/2000/svg" version="1.1" xmlns:xlink="http://www.w3.org/1999/xlink" xmlns:svgjs="http://svgjs.com/svgjs" width="1440" height="560" preserveAspectRatio="none" viewBox="0 0 1440 560"><g mask="url(&quot;#SvgjsMask1067&quot;)" fill="none"><rect width="1440" height="560" x="0" y="0" fill="rgba(41, 100, 120, 1)"></rect><path d="M0,535.147C101.004,520.151,191.054,482.044,286.541,445.866C409.262,399.37,563.055,398.462,640.464,292.49C719.387,184.446,739.948,23.221,684.076,-98.355C629.031,-218.131,459.84,-225.355,361.924,-313.609C281.312,-386.267,258.091,-507.913,165.992,-565.316C58.578,-632.265,-71.127,-691.194,-193.785,-659.97C-317.057,-628.59,-411.325,-518.866,-466.574,-404.288C-516.176,-301.42,-473.364,-182.916,-478.82,-68.844C-483.636,31.833,-518.095,128.355,-496.763,226.864C-471.773,342.262,-447.313,477.665,-346.989,539.925C-246.671,602.18,-116.785,552.486,0,535.147" fill="#1c4452"></path><path d="M1440 1166.317C1552.758 1157.809 1589.354 1001.483 1686.08 942.909 1787.0520000000001 881.765 1935.304 911.423 2010.788 820.6700000000001 2089.075 726.548 2107.154 587.456 2081.254 467.802 2055.9629999999997 350.96000000000004 1958.3719999999998 268.508 1873.127 184.69299999999998 1793.964 106.858 1711.451 29.562000000000012 1604.663-0.7910000000000537 1498.374-31.001999999999953 1386.453-14.575000000000045 1280.326 16.198999999999955 1173.921 47.053 1072.396 95.00599999999997 996.373 175.59500000000003 918.362 258.292 861.79 362.03 847.674 474.836 833.691 586.579 858.212 703.038 918.466 798.1759999999999 975.001 887.442 1082.5149999999999 921.002 1168.838 981.9359999999999 1259.981 1046.272 1328.753 1174.711 1440 1166.317" fill="#36849e"></path></g><defs><mask id="SvgjsMask1067"><rect width="1440" height="560" fill="#ffffff"></rect></mask></defs></svg>